<mxfile host="app.diagrams.net" modified="2024-03-15T17:13:56.895Z" agent="Mozilla/5.0 (Windows NT 10.0; Win64; x64) AppleWebKit/537.36 (KHTML, like Gecko) Chrome/122.0.0.0 Safari/537.36" etag="dM2BJa-afrmiNg2g25XS" version="24.0.5" type="device">
  <diagram name="Página-1" id="FaP_dJT9hkuv4Exj-_sJ">
    <mxGraphModel dx="788" dy="883" grid="1" gridSize="10" guides="1" tooltips="1" connect="1" arrows="1" fold="1" page="1" pageScale="1" pageWidth="827" pageHeight="1169" math="0" shadow="0">
      <root>
        <mxCell id="0" />
        <mxCell id="1" parent="0" />
        <mxCell id="19RHVUslfX-rteBm91JF-3" value="" style="strokeWidth=1;shadow=0;dashed=0;align=center;html=1;shape=mxgraph.mockup.containers.browserWindow;rSize=0;strokeColor=#666666;strokeColor2=#008cff;strokeColor3=#c4c4c4;mainText=,;recursiveResize=0;container=0;" parent="1" vertex="1">
          <mxGeometry x="1654" y="209" width="821" height="2121" as="geometry" />
        </mxCell>
        <mxCell id="giOqo-i87lCZL18woFMz-3" value="" style="rounded=0;whiteSpace=wrap;html=1;" parent="1" vertex="1">
          <mxGeometry x="1654" y="321" width="816" height="119" as="geometry" />
        </mxCell>
        <mxCell id="giOqo-i87lCZL18woFMz-1" value="" style="rounded=0;whiteSpace=wrap;html=1;" parent="1" vertex="1">
          <mxGeometry x="838.13" y="3830" width="190" height="50" as="geometry" />
        </mxCell>
        <mxCell id="19RHVUslfX-rteBm91JF-1" value="" style="verticalLabelPosition=bottom;verticalAlign=top;html=1;shadow=0;dashed=0;strokeWidth=1;shape=mxgraph.android.phone2;strokeColor=#c0c0c0;" parent="1" vertex="1">
          <mxGeometry x="829" y="209" width="200" height="4041" as="geometry" />
        </mxCell>
        <mxCell id="19RHVUslfX-rteBm91JF-6" value="" style="sketch=0;outlineConnect=0;fontColor=#232F3E;gradientColor=none;fillColor=#ED7100;strokeColor=none;dashed=0;verticalLabelPosition=bottom;verticalAlign=top;align=center;html=1;fontSize=12;fontStyle=0;aspect=fixed;pointerEvents=1;shape=mxgraph.aws4.container_registry_image;" parent="1" vertex="1">
          <mxGeometry x="840" y="508" width="40" height="40" as="geometry" />
        </mxCell>
        <mxCell id="19RHVUslfX-rteBm91JF-7" value="" style="sketch=0;outlineConnect=0;fontColor=#232F3E;gradientColor=none;fillColor=#ED7100;strokeColor=none;dashed=0;verticalLabelPosition=bottom;verticalAlign=top;align=center;html=1;fontSize=12;fontStyle=0;aspect=fixed;pointerEvents=1;shape=mxgraph.aws4.container_registry_image;" parent="1" vertex="1">
          <mxGeometry x="848.6300000000001" y="3840" width="28" height="28" as="geometry" />
        </mxCell>
        <mxCell id="19RHVUslfX-rteBm91JF-8" value="" style="sketch=0;outlineConnect=0;fontColor=#232F3E;gradientColor=none;fillColor=#ED7100;strokeColor=none;dashed=0;verticalLabelPosition=bottom;verticalAlign=top;align=center;html=1;fontSize=12;fontStyle=0;aspect=fixed;pointerEvents=1;shape=mxgraph.aws4.container_registry_image;" parent="1" vertex="1">
          <mxGeometry x="877.6300000000001" y="3840" width="28" height="28" as="geometry" />
        </mxCell>
        <mxCell id="19RHVUslfX-rteBm91JF-9" value="" style="sketch=0;outlineConnect=0;fontColor=#232F3E;gradientColor=none;fillColor=#ED7100;strokeColor=none;dashed=0;verticalLabelPosition=bottom;verticalAlign=top;align=center;html=1;fontSize=12;fontStyle=0;aspect=fixed;pointerEvents=1;shape=mxgraph.aws4.container_registry_image;" parent="1" vertex="1">
          <mxGeometry x="906.6300000000001" y="3840" width="28" height="28" as="geometry" />
        </mxCell>
        <mxCell id="19RHVUslfX-rteBm91JF-10" value="Copyright" style="text;html=1;strokeColor=none;fillColor=none;align=center;verticalAlign=middle;whiteSpace=wrap;rounded=0;" parent="1" vertex="1">
          <mxGeometry x="957.6300000000001" y="3840" width="60" height="30" as="geometry" />
        </mxCell>
        <mxCell id="19RHVUslfX-rteBm91JF-19" value="" style="verticalLabelPosition=bottom;shadow=0;dashed=0;align=center;html=1;verticalAlign=top;shape=mxgraph.electrical.transmission.3_line_bus;strokeWidth=4;" parent="1" vertex="1">
          <mxGeometry x="973.25" y="518.5" width="30" height="19" as="geometry" />
        </mxCell>
        <mxCell id="19RHVUslfX-rteBm91JF-21" value="" style="html=1;shadow=0;dashed=0;align=center;verticalAlign=middle;shape=mxgraph.arrows2.arrow;dy=0.6;dx=40;direction=north;notch=0;" parent="1" vertex="1">
          <mxGeometry x="987.6300000000001" y="3790" width="30" height="30" as="geometry" />
        </mxCell>
        <mxCell id="19RHVUslfX-rteBm91JF-33" value="" style="group" parent="1" vertex="1" connectable="0">
          <mxGeometry x="860.38" y="559.5" width="150" height="200" as="geometry" />
        </mxCell>
        <mxCell id="19RHVUslfX-rteBm91JF-13" value="Home" style="strokeWidth=1;shadow=0;dashed=0;align=center;html=1;shape=mxgraph.mockup.text.textBox;fontColor=#666666;align=left;fontSize=17;spacingLeft=4;spacingTop=-3;whiteSpace=wrap;strokeColor=#666666;mainText=" parent="19RHVUslfX-rteBm91JF-33" vertex="1">
          <mxGeometry width="150" height="40" as="geometry" />
        </mxCell>
        <mxCell id="19RHVUslfX-rteBm91JF-14" value="Dicas" style="strokeWidth=1;shadow=0;dashed=0;align=center;html=1;shape=mxgraph.mockup.text.textBox;fontColor=#666666;align=left;fontSize=17;spacingLeft=4;spacingTop=-3;whiteSpace=wrap;strokeColor=#666666;mainText=" parent="19RHVUslfX-rteBm91JF-33" vertex="1">
          <mxGeometry y="40" width="150" height="40" as="geometry" />
        </mxCell>
        <mxCell id="19RHVUslfX-rteBm91JF-15" value="Equipamentos" style="strokeWidth=1;shadow=0;dashed=0;align=center;html=1;shape=mxgraph.mockup.text.textBox;fontColor=#666666;align=left;fontSize=17;spacingLeft=4;spacingTop=-3;whiteSpace=wrap;strokeColor=#666666;mainText=" parent="19RHVUslfX-rteBm91JF-33" vertex="1">
          <mxGeometry y="80" width="150" height="40" as="geometry" />
        </mxCell>
        <mxCell id="19RHVUslfX-rteBm91JF-16" value="Links" style="strokeWidth=1;shadow=0;dashed=0;align=center;html=1;shape=mxgraph.mockup.text.textBox;fontColor=#666666;align=left;fontSize=17;spacingLeft=4;spacingTop=-3;whiteSpace=wrap;strokeColor=#666666;mainText=" parent="19RHVUslfX-rteBm91JF-33" vertex="1">
          <mxGeometry y="120" width="150" height="40" as="geometry" />
        </mxCell>
        <mxCell id="19RHVUslfX-rteBm91JF-17" value="Sobre mim" style="strokeWidth=1;shadow=0;dashed=0;align=center;html=1;shape=mxgraph.mockup.text.textBox;fontColor=#666666;align=left;fontSize=17;spacingLeft=4;spacingTop=-3;whiteSpace=wrap;strokeColor=#666666;mainText=" parent="19RHVUslfX-rteBm91JF-33" vertex="1">
          <mxGeometry y="160" width="150" height="40" as="geometry" />
        </mxCell>
        <mxCell id="19RHVUslfX-rteBm91JF-41" value="&lt;div style=&quot;&quot;&gt;&lt;span style=&quot;font-size: 50px; background-color: initial;&quot;&gt;Wireframe&lt;/span&gt;&lt;/div&gt;&lt;font style=&quot;font-size: 50px;&quot;&gt;&lt;div style=&quot;&quot;&gt;&lt;span style=&quot;background-color: initial;&quot;&gt;DigitalSynthesizers.com&lt;/span&gt;&lt;/div&gt;&lt;/font&gt;" style="text;html=1;strokeColor=none;fillColor=none;align=left;verticalAlign=middle;whiteSpace=wrap;rounded=0;" parent="1" vertex="1">
          <mxGeometry x="840" y="40" width="543" height="120" as="geometry" />
        </mxCell>
        <mxCell id="VqHraIQtky6QPpkY4Rgw-3" value="" style="rounded=1;whiteSpace=wrap;html=1;" parent="1" vertex="1">
          <mxGeometry x="846" y="924.21" width="169" height="261" as="geometry" />
        </mxCell>
        <mxCell id="VqHraIQtky6QPpkY4Rgw-4" value="" style="sketch=0;outlineConnect=0;fontColor=#232F3E;gradientColor=none;fillColor=#ED7100;strokeColor=none;dashed=0;verticalLabelPosition=bottom;verticalAlign=top;align=center;html=1;fontSize=12;fontStyle=0;aspect=fixed;pointerEvents=1;shape=mxgraph.aws4.container_registry_image;" parent="1" vertex="1">
          <mxGeometry x="855" y="936.21" width="149" height="149" as="geometry" />
        </mxCell>
        <mxCell id="VqHraIQtky6QPpkY4Rgw-5" value="&lt;font style=&quot;font-size: 20px;&quot;&gt;Titulo do cartão&lt;/font&gt;" style="text;strokeColor=none;fillColor=none;html=1;fontSize=24;fontStyle=1;verticalAlign=middle;align=center;" parent="1" vertex="1">
          <mxGeometry x="851.75" y="1096.21" width="164.5" height="20" as="geometry" />
        </mxCell>
        <mxCell id="VqHraIQtky6QPpkY4Rgw-6" value="Texto do cartão" style="text;html=1;strokeColor=none;fillColor=none;align=center;verticalAlign=middle;whiteSpace=wrap;rounded=0;" parent="1" vertex="1">
          <mxGeometry x="885.5" y="1116.21" width="90" height="30" as="geometry" />
        </mxCell>
        <mxCell id="VqHraIQtky6QPpkY4Rgw-7" value="Texto do cartão" style="text;html=1;strokeColor=none;fillColor=none;align=center;verticalAlign=middle;whiteSpace=wrap;rounded=0;" parent="1" vertex="1">
          <mxGeometry x="884.5" y="1135.21" width="90" height="30" as="geometry" />
        </mxCell>
        <mxCell id="VqHraIQtky6QPpkY4Rgw-54" value="Ver detalhes" style="rounded=1;fillColor=#F1F2F4;align=center;strokeColor=default;html=1;whiteSpace=wrap;fontColor=#596780;fontSize=12;sketch=0;" parent="1" vertex="1">
          <mxGeometry x="893.9099999999999" y="1164.21" width="73.18" height="17.41" as="geometry" />
        </mxCell>
        <mxCell id="19RHVUslfX-rteBm91JF-4" value="Page 1" style="strokeWidth=1;shadow=0;dashed=0;align=center;html=1;shape=mxgraph.mockup.containers.anchor;fontSize=17;fontColor=#666666;align=left;whiteSpace=wrap;" parent="1" vertex="1">
          <mxGeometry x="1714" y="221" width="110" height="26" as="geometry" />
        </mxCell>
        <mxCell id="19RHVUslfX-rteBm91JF-5" value="https://www.draw.io" style="strokeWidth=1;shadow=0;dashed=0;align=center;html=1;shape=mxgraph.mockup.containers.anchor;rSize=0;fontSize=17;fontColor=#666666;align=left;" parent="1" vertex="1">
          <mxGeometry x="1784" y="269" width="250" height="26" as="geometry" />
        </mxCell>
        <mxCell id="19RHVUslfX-rteBm91JF-36" value="" style="sketch=0;outlineConnect=0;fontColor=#232F3E;gradientColor=none;fillColor=#ED7100;strokeColor=none;dashed=0;verticalLabelPosition=bottom;verticalAlign=top;align=center;html=1;fontSize=12;fontStyle=0;aspect=fixed;pointerEvents=1;shape=mxgraph.aws4.container_registry_image;" parent="1" vertex="1">
          <mxGeometry x="1784.68" y="2259.25" width="50.5" height="50.5" as="geometry" />
        </mxCell>
        <mxCell id="19RHVUslfX-rteBm91JF-37" value="" style="sketch=0;outlineConnect=0;fontColor=#232F3E;gradientColor=none;fillColor=#ED7100;strokeColor=none;dashed=0;verticalLabelPosition=bottom;verticalAlign=top;align=center;html=1;fontSize=12;fontStyle=0;aspect=fixed;pointerEvents=1;shape=mxgraph.aws4.container_registry_image;" parent="1" vertex="1">
          <mxGeometry x="1724.18" y="2259.25" width="50.5" height="50.5" as="geometry" />
        </mxCell>
        <mxCell id="19RHVUslfX-rteBm91JF-38" value="" style="sketch=0;outlineConnect=0;fontColor=#232F3E;gradientColor=none;fillColor=#ED7100;strokeColor=none;dashed=0;verticalLabelPosition=bottom;verticalAlign=top;align=center;html=1;fontSize=12;fontStyle=0;aspect=fixed;pointerEvents=1;shape=mxgraph.aws4.container_registry_image;" parent="1" vertex="1">
          <mxGeometry x="1664.18" y="2259.25" width="50.5" height="50.5" as="geometry" />
        </mxCell>
        <mxCell id="19RHVUslfX-rteBm91JF-39" value="&lt;font style=&quot;font-size: 32px;&quot;&gt;Copyright&lt;/font&gt;" style="text;html=1;strokeColor=none;fillColor=none;align=center;verticalAlign=middle;whiteSpace=wrap;rounded=0;" parent="1" vertex="1">
          <mxGeometry x="2306.64" y="2264.5" width="149" height="40" as="geometry" />
        </mxCell>
        <mxCell id="19RHVUslfX-rteBm91JF-40" value="" style="html=1;shadow=0;dashed=0;align=center;verticalAlign=middle;shape=mxgraph.arrows2.arrow;dy=0.6;dx=40;direction=north;notch=0;" parent="1" vertex="1">
          <mxGeometry x="2398.64" y="2160" width="62" height="40" as="geometry" />
        </mxCell>
        <mxCell id="19RHVUslfX-rteBm91JF-34" value="" style="endArrow=none;html=1;rounded=0;exitX=0.999;exitY=0.378;exitDx=0;exitDy=0;exitPerimeter=0;entryX=0.003;entryY=0.38;entryDx=0;entryDy=0;entryPerimeter=0;" parent="1" edge="1">
          <mxGeometry width="50" height="50" relative="1" as="geometry">
            <mxPoint x="2473.359" y="2206.9779999999996" as="sourcePoint" />
            <mxPoint x="1655.643" y="2208.8799999999997" as="targetPoint" />
          </mxGeometry>
        </mxCell>
        <mxCell id="VqHraIQtky6QPpkY4Rgw-34" value="" style="rounded=1;whiteSpace=wrap;html=1;" parent="1" vertex="1">
          <mxGeometry x="1714" y="669" width="169" height="261" as="geometry" />
        </mxCell>
        <mxCell id="VqHraIQtky6QPpkY4Rgw-35" value="" style="sketch=0;outlineConnect=0;fontColor=#232F3E;gradientColor=none;fillColor=#ED7100;strokeColor=none;dashed=0;verticalLabelPosition=bottom;verticalAlign=top;align=center;html=1;fontSize=12;fontStyle=0;aspect=fixed;pointerEvents=1;shape=mxgraph.aws4.container_registry_image;" parent="1" vertex="1">
          <mxGeometry x="1723" y="681" width="149" height="149" as="geometry" />
        </mxCell>
        <mxCell id="VqHraIQtky6QPpkY4Rgw-36" value="&lt;font style=&quot;font-size: 20px;&quot;&gt;Titulo do cartão&lt;/font&gt;" style="text;strokeColor=none;fillColor=none;html=1;fontSize=24;fontStyle=1;verticalAlign=middle;align=center;" parent="1" vertex="1">
          <mxGeometry x="1719.75" y="841" width="164.5" height="20" as="geometry" />
        </mxCell>
        <mxCell id="VqHraIQtky6QPpkY4Rgw-37" value="Texto do cartão" style="text;html=1;strokeColor=none;fillColor=none;align=center;verticalAlign=middle;whiteSpace=wrap;rounded=0;" parent="1" vertex="1">
          <mxGeometry x="1753.5" y="861" width="90" height="30" as="geometry" />
        </mxCell>
        <mxCell id="VqHraIQtky6QPpkY4Rgw-38" value="Texto do cartão" style="text;html=1;strokeColor=none;fillColor=none;align=center;verticalAlign=middle;whiteSpace=wrap;rounded=0;" parent="1" vertex="1">
          <mxGeometry x="1752.5" y="880" width="90" height="30" as="geometry" />
        </mxCell>
        <mxCell id="VqHraIQtky6QPpkY4Rgw-53" value="Ver detalhes" style="rounded=1;fillColor=#F1F2F4;align=center;strokeColor=default;html=1;whiteSpace=wrap;fontColor=#596780;fontSize=12;sketch=0;" parent="1" vertex="1">
          <mxGeometry x="1762.4" y="908" width="70.19" height="17.41" as="geometry" />
        </mxCell>
        <mxCell id="19RHVUslfX-rteBm91JF-25" value="" style="sketch=0;outlineConnect=0;fontColor=#232F3E;gradientColor=none;fillColor=#ED7100;strokeColor=none;dashed=0;verticalLabelPosition=bottom;verticalAlign=top;align=center;html=1;fontSize=12;fontStyle=0;aspect=fixed;pointerEvents=1;shape=mxgraph.aws4.container_registry_image;" parent="1" vertex="1">
          <mxGeometry x="2044" y="330" width="48" height="48" as="geometry" />
        </mxCell>
        <mxCell id="giOqo-i87lCZL18woFMz-9" value="" style="group;verticalAlign=middle;align=center;" parent="1" vertex="1" connectable="0">
          <mxGeometry x="1830" y="389.5" width="480" height="40.5" as="geometry" />
        </mxCell>
        <mxCell id="giOqo-i87lCZL18woFMz-7" value="" style="group" parent="giOqo-i87lCZL18woFMz-9" vertex="1" connectable="0">
          <mxGeometry x="194.24701379099295" width="285.752986209007" height="40.5" as="geometry" />
        </mxCell>
        <mxCell id="19RHVUslfX-rteBm91JF-27" value="Sobre mim" style="strokeWidth=1;shadow=0;dashed=0;align=center;html=1;shape=mxgraph.mockup.text.textBox;fontColor=#666666;align=center;fontSize=17;spacingLeft=4;spacingTop=-3;whiteSpace=wrap;strokeColor=#666666;mainText=" parent="giOqo-i87lCZL18woFMz-7" vertex="1">
          <mxGeometry x="189.43175490260018" y="0.5" width="96.32123130640686" height="40" as="geometry" />
        </mxCell>
        <mxCell id="19RHVUslfX-rteBm91JF-29" value="Links" style="strokeWidth=1;shadow=0;dashed=0;align=center;html=1;shape=mxgraph.mockup.text.textBox;fontColor=#666666;align=center;fontSize=17;spacingLeft=4;spacingTop=-3;whiteSpace=wrap;strokeColor=#666666;mainText=" parent="giOqo-i87lCZL18woFMz-7" vertex="1">
          <mxGeometry x="120" width="70.23" height="40" as="geometry" />
        </mxCell>
        <mxCell id="19RHVUslfX-rteBm91JF-30" value="Equipamentos" style="strokeWidth=1;shadow=0;dashed=0;align=center;html=1;shape=mxgraph.mockup.text.textBox;fontColor=#666666;align=center;fontSize=17;spacingLeft=4;spacingTop=-3;whiteSpace=wrap;strokeColor=#666666;mainText=" parent="giOqo-i87lCZL18woFMz-7" vertex="1">
          <mxGeometry width="120" height="40" as="geometry" />
        </mxCell>
        <mxCell id="giOqo-i87lCZL18woFMz-8" value="" style="group" parent="giOqo-i87lCZL18woFMz-9" vertex="1" connectable="0">
          <mxGeometry width="194.24701379099295" height="40" as="geometry" />
        </mxCell>
        <mxCell id="19RHVUslfX-rteBm91JF-31" value="Home" style="strokeWidth=1;shadow=0;dashed=0;align=center;html=1;shape=mxgraph.mockup.text.textBox;fontColor=#666666;align=center;fontSize=17;spacingLeft=4;spacingTop=-3;whiteSpace=wrap;strokeColor=#666666;mainText=" parent="giOqo-i87lCZL18woFMz-8" vertex="1">
          <mxGeometry width="97.12390823396028" height="40" as="geometry" />
        </mxCell>
        <mxCell id="giOqo-i87lCZL18woFMz-6" value="Dicas" style="strokeWidth=1;shadow=0;dashed=0;align=center;html=1;shape=mxgraph.mockup.text.textBox;fontColor=#666666;align=center;fontSize=17;spacingLeft=4;spacingTop=-3;whiteSpace=wrap;strokeColor=#666666;mainText=" parent="giOqo-i87lCZL18woFMz-8" vertex="1">
          <mxGeometry x="97.12310555703269" width="97.12390823396028" height="40" as="geometry" />
        </mxCell>
        <mxCell id="hCV3SswvlFDgwHoPoeKC-1" value="" style="rounded=1;whiteSpace=wrap;html=1;" vertex="1" parent="1">
          <mxGeometry x="2231.75" y="653.7" width="169" height="261" as="geometry" />
        </mxCell>
        <mxCell id="hCV3SswvlFDgwHoPoeKC-2" value="" style="sketch=0;outlineConnect=0;fontColor=#232F3E;gradientColor=none;fillColor=#ED7100;strokeColor=none;dashed=0;verticalLabelPosition=bottom;verticalAlign=top;align=center;html=1;fontSize=12;fontStyle=0;aspect=fixed;pointerEvents=1;shape=mxgraph.aws4.container_registry_image;" vertex="1" parent="1">
          <mxGeometry x="2240.75" y="665.7" width="149" height="149" as="geometry" />
        </mxCell>
        <mxCell id="hCV3SswvlFDgwHoPoeKC-3" value="&lt;font style=&quot;font-size: 20px;&quot;&gt;Titulo do cartão&lt;/font&gt;" style="text;strokeColor=none;fillColor=none;html=1;fontSize=24;fontStyle=1;verticalAlign=middle;align=center;" vertex="1" parent="1">
          <mxGeometry x="2237.5" y="825.7" width="164.5" height="20" as="geometry" />
        </mxCell>
        <mxCell id="hCV3SswvlFDgwHoPoeKC-4" value="Texto do cartão" style="text;html=1;strokeColor=none;fillColor=none;align=center;verticalAlign=middle;whiteSpace=wrap;rounded=0;" vertex="1" parent="1">
          <mxGeometry x="2271.25" y="845.7" width="90" height="30" as="geometry" />
        </mxCell>
        <mxCell id="hCV3SswvlFDgwHoPoeKC-5" value="Texto do cartão" style="text;html=1;strokeColor=none;fillColor=none;align=center;verticalAlign=middle;whiteSpace=wrap;rounded=0;" vertex="1" parent="1">
          <mxGeometry x="2270.25" y="864.7" width="90" height="30" as="geometry" />
        </mxCell>
        <mxCell id="hCV3SswvlFDgwHoPoeKC-6" value="Ver detalhes" style="rounded=1;fillColor=#F1F2F4;align=center;strokeColor=default;html=1;whiteSpace=wrap;fontColor=#596780;fontSize=12;sketch=0;" vertex="1" parent="1">
          <mxGeometry x="2280.15" y="892.7" width="70.19" height="17.41" as="geometry" />
        </mxCell>
        <mxCell id="hCV3SswvlFDgwHoPoeKC-7" value="" style="rounded=1;whiteSpace=wrap;html=1;" vertex="1" parent="1">
          <mxGeometry x="1982" y="653.71" width="169" height="261" as="geometry" />
        </mxCell>
        <mxCell id="hCV3SswvlFDgwHoPoeKC-8" value="" style="sketch=0;outlineConnect=0;fontColor=#232F3E;gradientColor=none;fillColor=#ED7100;strokeColor=none;dashed=0;verticalLabelPosition=bottom;verticalAlign=top;align=center;html=1;fontSize=12;fontStyle=0;aspect=fixed;pointerEvents=1;shape=mxgraph.aws4.container_registry_image;" vertex="1" parent="1">
          <mxGeometry x="1991" y="665.71" width="149" height="149" as="geometry" />
        </mxCell>
        <mxCell id="hCV3SswvlFDgwHoPoeKC-9" value="&lt;font style=&quot;font-size: 20px;&quot;&gt;Titulo do cartão&lt;/font&gt;" style="text;strokeColor=none;fillColor=none;html=1;fontSize=24;fontStyle=1;verticalAlign=middle;align=center;" vertex="1" parent="1">
          <mxGeometry x="1987.75" y="825.71" width="164.5" height="20" as="geometry" />
        </mxCell>
        <mxCell id="hCV3SswvlFDgwHoPoeKC-10" value="Texto do cartão" style="text;html=1;strokeColor=none;fillColor=none;align=center;verticalAlign=middle;whiteSpace=wrap;rounded=0;" vertex="1" parent="1">
          <mxGeometry x="2021.5" y="845.71" width="90" height="30" as="geometry" />
        </mxCell>
        <mxCell id="hCV3SswvlFDgwHoPoeKC-11" value="Texto do cartão" style="text;html=1;strokeColor=none;fillColor=none;align=center;verticalAlign=middle;whiteSpace=wrap;rounded=0;" vertex="1" parent="1">
          <mxGeometry x="2020.5" y="864.71" width="90" height="30" as="geometry" />
        </mxCell>
        <mxCell id="hCV3SswvlFDgwHoPoeKC-12" value="Ver detalhes" style="rounded=1;fillColor=#F1F2F4;align=center;strokeColor=default;html=1;whiteSpace=wrap;fontColor=#596780;fontSize=12;sketch=0;" vertex="1" parent="1">
          <mxGeometry x="2030.4" y="892.71" width="70.19" height="17.41" as="geometry" />
        </mxCell>
        <mxCell id="hCV3SswvlFDgwHoPoeKC-13" value="&lt;font style=&quot;font-size: 62px;&quot;&gt;Title&lt;/font&gt;" style="text;html=1;align=center;verticalAlign=middle;whiteSpace=wrap;rounded=0;" vertex="1" parent="1">
          <mxGeometry x="2032" y="535.5" width="60" height="30" as="geometry" />
        </mxCell>
        <mxCell id="hCV3SswvlFDgwHoPoeKC-14" value="" style="rounded=1;whiteSpace=wrap;html=1;" vertex="1" parent="1">
          <mxGeometry x="1726" y="1273.5" width="169" height="261" as="geometry" />
        </mxCell>
        <mxCell id="hCV3SswvlFDgwHoPoeKC-15" value="" style="sketch=0;outlineConnect=0;fontColor=#232F3E;gradientColor=none;fillColor=#ED7100;strokeColor=none;dashed=0;verticalLabelPosition=bottom;verticalAlign=top;align=center;html=1;fontSize=12;fontStyle=0;aspect=fixed;pointerEvents=1;shape=mxgraph.aws4.container_registry_image;" vertex="1" parent="1">
          <mxGeometry x="1735" y="1285.5" width="149" height="149" as="geometry" />
        </mxCell>
        <mxCell id="hCV3SswvlFDgwHoPoeKC-16" value="&lt;font style=&quot;font-size: 20px;&quot;&gt;Titulo do cartão&lt;/font&gt;" style="text;strokeColor=none;fillColor=none;html=1;fontSize=24;fontStyle=1;verticalAlign=middle;align=center;" vertex="1" parent="1">
          <mxGeometry x="1731.75" y="1445.5" width="164.5" height="20" as="geometry" />
        </mxCell>
        <mxCell id="hCV3SswvlFDgwHoPoeKC-17" value="Texto do cartão" style="text;html=1;strokeColor=none;fillColor=none;align=center;verticalAlign=middle;whiteSpace=wrap;rounded=0;" vertex="1" parent="1">
          <mxGeometry x="1765.5" y="1465.5" width="90" height="30" as="geometry" />
        </mxCell>
        <mxCell id="hCV3SswvlFDgwHoPoeKC-18" value="Texto do cartão" style="text;html=1;strokeColor=none;fillColor=none;align=center;verticalAlign=middle;whiteSpace=wrap;rounded=0;" vertex="1" parent="1">
          <mxGeometry x="1764.5" y="1484.5" width="90" height="30" as="geometry" />
        </mxCell>
        <mxCell id="hCV3SswvlFDgwHoPoeKC-19" value="Ver detalhes" style="rounded=1;fillColor=#F1F2F4;align=center;strokeColor=default;html=1;whiteSpace=wrap;fontColor=#596780;fontSize=12;sketch=0;" vertex="1" parent="1">
          <mxGeometry x="1774.4" y="1512.5" width="70.19" height="17.41" as="geometry" />
        </mxCell>
        <mxCell id="hCV3SswvlFDgwHoPoeKC-20" value="" style="rounded=1;whiteSpace=wrap;html=1;" vertex="1" parent="1">
          <mxGeometry x="2243.75" y="1258.2" width="169" height="261" as="geometry" />
        </mxCell>
        <mxCell id="hCV3SswvlFDgwHoPoeKC-21" value="" style="sketch=0;outlineConnect=0;fontColor=#232F3E;gradientColor=none;fillColor=#ED7100;strokeColor=none;dashed=0;verticalLabelPosition=bottom;verticalAlign=top;align=center;html=1;fontSize=12;fontStyle=0;aspect=fixed;pointerEvents=1;shape=mxgraph.aws4.container_registry_image;" vertex="1" parent="1">
          <mxGeometry x="2252.75" y="1270.2" width="149" height="149" as="geometry" />
        </mxCell>
        <mxCell id="hCV3SswvlFDgwHoPoeKC-22" value="&lt;font style=&quot;font-size: 20px;&quot;&gt;Titulo do cartão&lt;/font&gt;" style="text;strokeColor=none;fillColor=none;html=1;fontSize=24;fontStyle=1;verticalAlign=middle;align=center;" vertex="1" parent="1">
          <mxGeometry x="2249.5" y="1430.2" width="164.5" height="20" as="geometry" />
        </mxCell>
        <mxCell id="hCV3SswvlFDgwHoPoeKC-23" value="Texto do cartão" style="text;html=1;strokeColor=none;fillColor=none;align=center;verticalAlign=middle;whiteSpace=wrap;rounded=0;" vertex="1" parent="1">
          <mxGeometry x="2283.25" y="1450.2" width="90" height="30" as="geometry" />
        </mxCell>
        <mxCell id="hCV3SswvlFDgwHoPoeKC-24" value="Texto do cartão" style="text;html=1;strokeColor=none;fillColor=none;align=center;verticalAlign=middle;whiteSpace=wrap;rounded=0;" vertex="1" parent="1">
          <mxGeometry x="2282.25" y="1469.2" width="90" height="30" as="geometry" />
        </mxCell>
        <mxCell id="hCV3SswvlFDgwHoPoeKC-25" value="Ver detalhes" style="rounded=1;fillColor=#F1F2F4;align=center;strokeColor=default;html=1;whiteSpace=wrap;fontColor=#596780;fontSize=12;sketch=0;" vertex="1" parent="1">
          <mxGeometry x="2292.15" y="1497.2" width="70.19" height="17.41" as="geometry" />
        </mxCell>
        <mxCell id="hCV3SswvlFDgwHoPoeKC-26" value="" style="rounded=1;whiteSpace=wrap;html=1;" vertex="1" parent="1">
          <mxGeometry x="1994" y="1258.21" width="169" height="261" as="geometry" />
        </mxCell>
        <mxCell id="hCV3SswvlFDgwHoPoeKC-27" value="" style="sketch=0;outlineConnect=0;fontColor=#232F3E;gradientColor=none;fillColor=#ED7100;strokeColor=none;dashed=0;verticalLabelPosition=bottom;verticalAlign=top;align=center;html=1;fontSize=12;fontStyle=0;aspect=fixed;pointerEvents=1;shape=mxgraph.aws4.container_registry_image;" vertex="1" parent="1">
          <mxGeometry x="2003" y="1270.21" width="149" height="149" as="geometry" />
        </mxCell>
        <mxCell id="hCV3SswvlFDgwHoPoeKC-28" value="&lt;font style=&quot;font-size: 20px;&quot;&gt;Titulo do cartão&lt;/font&gt;" style="text;strokeColor=none;fillColor=none;html=1;fontSize=24;fontStyle=1;verticalAlign=middle;align=center;" vertex="1" parent="1">
          <mxGeometry x="1999.75" y="1430.21" width="164.5" height="20" as="geometry" />
        </mxCell>
        <mxCell id="hCV3SswvlFDgwHoPoeKC-29" value="Texto do cartão" style="text;html=1;strokeColor=none;fillColor=none;align=center;verticalAlign=middle;whiteSpace=wrap;rounded=0;" vertex="1" parent="1">
          <mxGeometry x="2033.5" y="1450.21" width="90" height="30" as="geometry" />
        </mxCell>
        <mxCell id="hCV3SswvlFDgwHoPoeKC-30" value="Texto do cartão" style="text;html=1;strokeColor=none;fillColor=none;align=center;verticalAlign=middle;whiteSpace=wrap;rounded=0;" vertex="1" parent="1">
          <mxGeometry x="2032.5" y="1469.21" width="90" height="30" as="geometry" />
        </mxCell>
        <mxCell id="hCV3SswvlFDgwHoPoeKC-31" value="Ver detalhes" style="rounded=1;fillColor=#F1F2F4;align=center;strokeColor=default;html=1;whiteSpace=wrap;fontColor=#596780;fontSize=12;sketch=0;" vertex="1" parent="1">
          <mxGeometry x="2042.4" y="1497.21" width="70.19" height="17.41" as="geometry" />
        </mxCell>
        <mxCell id="hCV3SswvlFDgwHoPoeKC-32" value="&lt;font style=&quot;font-size: 62px;&quot;&gt;Title&lt;/font&gt;" style="text;html=1;align=center;verticalAlign=middle;whiteSpace=wrap;rounded=0;" vertex="1" parent="1">
          <mxGeometry x="2044" y="1140" width="60" height="30" as="geometry" />
        </mxCell>
        <mxCell id="hCV3SswvlFDgwHoPoeKC-33" value="" style="rounded=1;whiteSpace=wrap;html=1;" vertex="1" parent="1">
          <mxGeometry x="1718" y="1899" width="169" height="261" as="geometry" />
        </mxCell>
        <mxCell id="hCV3SswvlFDgwHoPoeKC-34" value="" style="sketch=0;outlineConnect=0;fontColor=#232F3E;gradientColor=none;fillColor=#ED7100;strokeColor=none;dashed=0;verticalLabelPosition=bottom;verticalAlign=top;align=center;html=1;fontSize=12;fontStyle=0;aspect=fixed;pointerEvents=1;shape=mxgraph.aws4.container_registry_image;" vertex="1" parent="1">
          <mxGeometry x="1727" y="1911" width="149" height="149" as="geometry" />
        </mxCell>
        <mxCell id="hCV3SswvlFDgwHoPoeKC-35" value="&lt;font style=&quot;font-size: 20px;&quot;&gt;Titulo do cartão&lt;/font&gt;" style="text;strokeColor=none;fillColor=none;html=1;fontSize=24;fontStyle=1;verticalAlign=middle;align=center;" vertex="1" parent="1">
          <mxGeometry x="1723.75" y="2071" width="164.5" height="20" as="geometry" />
        </mxCell>
        <mxCell id="hCV3SswvlFDgwHoPoeKC-36" value="Texto do cartão" style="text;html=1;strokeColor=none;fillColor=none;align=center;verticalAlign=middle;whiteSpace=wrap;rounded=0;" vertex="1" parent="1">
          <mxGeometry x="1757.5" y="2091" width="90" height="30" as="geometry" />
        </mxCell>
        <mxCell id="hCV3SswvlFDgwHoPoeKC-37" value="Texto do cartão" style="text;html=1;strokeColor=none;fillColor=none;align=center;verticalAlign=middle;whiteSpace=wrap;rounded=0;" vertex="1" parent="1">
          <mxGeometry x="1756.5" y="2110" width="90" height="30" as="geometry" />
        </mxCell>
        <mxCell id="hCV3SswvlFDgwHoPoeKC-38" value="Ver detalhes" style="rounded=1;fillColor=#F1F2F4;align=center;strokeColor=default;html=1;whiteSpace=wrap;fontColor=#596780;fontSize=12;sketch=0;" vertex="1" parent="1">
          <mxGeometry x="1766.4" y="2138" width="70.19" height="17.41" as="geometry" />
        </mxCell>
        <mxCell id="hCV3SswvlFDgwHoPoeKC-39" value="" style="rounded=1;whiteSpace=wrap;html=1;" vertex="1" parent="1">
          <mxGeometry x="2235.75" y="1883.7" width="169" height="261" as="geometry" />
        </mxCell>
        <mxCell id="hCV3SswvlFDgwHoPoeKC-40" value="" style="sketch=0;outlineConnect=0;fontColor=#232F3E;gradientColor=none;fillColor=#ED7100;strokeColor=none;dashed=0;verticalLabelPosition=bottom;verticalAlign=top;align=center;html=1;fontSize=12;fontStyle=0;aspect=fixed;pointerEvents=1;shape=mxgraph.aws4.container_registry_image;" vertex="1" parent="1">
          <mxGeometry x="2244.75" y="1895.7" width="149" height="149" as="geometry" />
        </mxCell>
        <mxCell id="hCV3SswvlFDgwHoPoeKC-41" value="&lt;font style=&quot;font-size: 20px;&quot;&gt;Titulo do cartão&lt;/font&gt;" style="text;strokeColor=none;fillColor=none;html=1;fontSize=24;fontStyle=1;verticalAlign=middle;align=center;" vertex="1" parent="1">
          <mxGeometry x="2241.5" y="2055.7" width="164.5" height="20" as="geometry" />
        </mxCell>
        <mxCell id="hCV3SswvlFDgwHoPoeKC-42" value="Texto do cartão" style="text;html=1;strokeColor=none;fillColor=none;align=center;verticalAlign=middle;whiteSpace=wrap;rounded=0;" vertex="1" parent="1">
          <mxGeometry x="2275.25" y="2075.7" width="90" height="30" as="geometry" />
        </mxCell>
        <mxCell id="hCV3SswvlFDgwHoPoeKC-43" value="Texto do cartão" style="text;html=1;strokeColor=none;fillColor=none;align=center;verticalAlign=middle;whiteSpace=wrap;rounded=0;" vertex="1" parent="1">
          <mxGeometry x="2274.25" y="2094.7" width="90" height="30" as="geometry" />
        </mxCell>
        <mxCell id="hCV3SswvlFDgwHoPoeKC-44" value="Ver detalhes" style="rounded=1;fillColor=#F1F2F4;align=center;strokeColor=default;html=1;whiteSpace=wrap;fontColor=#596780;fontSize=12;sketch=0;" vertex="1" parent="1">
          <mxGeometry x="2284.15" y="2122.7" width="70.19" height="17.41" as="geometry" />
        </mxCell>
        <mxCell id="hCV3SswvlFDgwHoPoeKC-45" value="" style="rounded=1;whiteSpace=wrap;html=1;" vertex="1" parent="1">
          <mxGeometry x="1986" y="1883.71" width="169" height="261" as="geometry" />
        </mxCell>
        <mxCell id="hCV3SswvlFDgwHoPoeKC-46" value="" style="sketch=0;outlineConnect=0;fontColor=#232F3E;gradientColor=none;fillColor=#ED7100;strokeColor=none;dashed=0;verticalLabelPosition=bottom;verticalAlign=top;align=center;html=1;fontSize=12;fontStyle=0;aspect=fixed;pointerEvents=1;shape=mxgraph.aws4.container_registry_image;" vertex="1" parent="1">
          <mxGeometry x="1995" y="1895.71" width="149" height="149" as="geometry" />
        </mxCell>
        <mxCell id="hCV3SswvlFDgwHoPoeKC-47" value="&lt;font style=&quot;font-size: 20px;&quot;&gt;Titulo do cartão&lt;/font&gt;" style="text;strokeColor=none;fillColor=none;html=1;fontSize=24;fontStyle=1;verticalAlign=middle;align=center;" vertex="1" parent="1">
          <mxGeometry x="1991.75" y="2055.71" width="164.5" height="20" as="geometry" />
        </mxCell>
        <mxCell id="hCV3SswvlFDgwHoPoeKC-48" value="Texto do cartão" style="text;html=1;strokeColor=none;fillColor=none;align=center;verticalAlign=middle;whiteSpace=wrap;rounded=0;" vertex="1" parent="1">
          <mxGeometry x="2025.5" y="2075.71" width="90" height="30" as="geometry" />
        </mxCell>
        <mxCell id="hCV3SswvlFDgwHoPoeKC-49" value="Texto do cartão" style="text;html=1;strokeColor=none;fillColor=none;align=center;verticalAlign=middle;whiteSpace=wrap;rounded=0;" vertex="1" parent="1">
          <mxGeometry x="2024.5" y="2094.71" width="90" height="30" as="geometry" />
        </mxCell>
        <mxCell id="hCV3SswvlFDgwHoPoeKC-50" value="Ver detalhes" style="rounded=1;fillColor=#F1F2F4;align=center;strokeColor=default;html=1;whiteSpace=wrap;fontColor=#596780;fontSize=12;sketch=0;" vertex="1" parent="1">
          <mxGeometry x="2034.4" y="2122.71" width="70.19" height="17.41" as="geometry" />
        </mxCell>
        <mxCell id="hCV3SswvlFDgwHoPoeKC-51" value="&lt;font style=&quot;font-size: 62px;&quot;&gt;Title&lt;/font&gt;" style="text;html=1;align=center;verticalAlign=middle;whiteSpace=wrap;rounded=0;" vertex="1" parent="1">
          <mxGeometry x="2036" y="1765.5" width="60" height="30" as="geometry" />
        </mxCell>
        <mxCell id="hCV3SswvlFDgwHoPoeKC-52" value="&lt;font style=&quot;font-size: 62px;&quot;&gt;Title&lt;/font&gt;" style="text;html=1;align=center;verticalAlign=middle;whiteSpace=wrap;rounded=0;" vertex="1" parent="1">
          <mxGeometry x="892.87" y="878" width="60" height="30" as="geometry" />
        </mxCell>
        <mxCell id="hCV3SswvlFDgwHoPoeKC-56" value="" style="rounded=1;whiteSpace=wrap;html=1;" vertex="1" parent="1">
          <mxGeometry x="843.25" y="1204.5" width="169" height="261" as="geometry" />
        </mxCell>
        <mxCell id="hCV3SswvlFDgwHoPoeKC-57" value="" style="sketch=0;outlineConnect=0;fontColor=#232F3E;gradientColor=none;fillColor=#ED7100;strokeColor=none;dashed=0;verticalLabelPosition=bottom;verticalAlign=top;align=center;html=1;fontSize=12;fontStyle=0;aspect=fixed;pointerEvents=1;shape=mxgraph.aws4.container_registry_image;" vertex="1" parent="1">
          <mxGeometry x="852.25" y="1216.5" width="149" height="149" as="geometry" />
        </mxCell>
        <mxCell id="hCV3SswvlFDgwHoPoeKC-58" value="&lt;font style=&quot;font-size: 20px;&quot;&gt;Titulo do cartão&lt;/font&gt;" style="text;strokeColor=none;fillColor=none;html=1;fontSize=24;fontStyle=1;verticalAlign=middle;align=center;" vertex="1" parent="1">
          <mxGeometry x="849" y="1376.5" width="164.5" height="20" as="geometry" />
        </mxCell>
        <mxCell id="hCV3SswvlFDgwHoPoeKC-59" value="Texto do cartão" style="text;html=1;strokeColor=none;fillColor=none;align=center;verticalAlign=middle;whiteSpace=wrap;rounded=0;" vertex="1" parent="1">
          <mxGeometry x="882.75" y="1396.5" width="90" height="30" as="geometry" />
        </mxCell>
        <mxCell id="hCV3SswvlFDgwHoPoeKC-60" value="Texto do cartão" style="text;html=1;strokeColor=none;fillColor=none;align=center;verticalAlign=middle;whiteSpace=wrap;rounded=0;" vertex="1" parent="1">
          <mxGeometry x="881.75" y="1415.5" width="90" height="30" as="geometry" />
        </mxCell>
        <mxCell id="hCV3SswvlFDgwHoPoeKC-61" value="Ver detalhes" style="rounded=1;fillColor=#F1F2F4;align=center;strokeColor=default;html=1;whiteSpace=wrap;fontColor=#596780;fontSize=12;sketch=0;" vertex="1" parent="1">
          <mxGeometry x="891.1599999999999" y="1444.5" width="73.18" height="17.41" as="geometry" />
        </mxCell>
        <mxCell id="hCV3SswvlFDgwHoPoeKC-62" value="" style="rounded=1;whiteSpace=wrap;html=1;" vertex="1" parent="1">
          <mxGeometry x="850.26" y="1480.2" width="169" height="261" as="geometry" />
        </mxCell>
        <mxCell id="hCV3SswvlFDgwHoPoeKC-63" value="" style="sketch=0;outlineConnect=0;fontColor=#232F3E;gradientColor=none;fillColor=#ED7100;strokeColor=none;dashed=0;verticalLabelPosition=bottom;verticalAlign=top;align=center;html=1;fontSize=12;fontStyle=0;aspect=fixed;pointerEvents=1;shape=mxgraph.aws4.container_registry_image;" vertex="1" parent="1">
          <mxGeometry x="859.26" y="1492.2" width="149" height="149" as="geometry" />
        </mxCell>
        <mxCell id="hCV3SswvlFDgwHoPoeKC-64" value="&lt;font style=&quot;font-size: 20px;&quot;&gt;Titulo do cartão&lt;/font&gt;" style="text;strokeColor=none;fillColor=none;html=1;fontSize=24;fontStyle=1;verticalAlign=middle;align=center;" vertex="1" parent="1">
          <mxGeometry x="856.01" y="1652.2" width="164.5" height="20" as="geometry" />
        </mxCell>
        <mxCell id="hCV3SswvlFDgwHoPoeKC-65" value="Texto do cartão" style="text;html=1;strokeColor=none;fillColor=none;align=center;verticalAlign=middle;whiteSpace=wrap;rounded=0;" vertex="1" parent="1">
          <mxGeometry x="889.76" y="1672.2" width="90" height="30" as="geometry" />
        </mxCell>
        <mxCell id="hCV3SswvlFDgwHoPoeKC-66" value="Texto do cartão" style="text;html=1;strokeColor=none;fillColor=none;align=center;verticalAlign=middle;whiteSpace=wrap;rounded=0;" vertex="1" parent="1">
          <mxGeometry x="888.76" y="1691.2" width="90" height="30" as="geometry" />
        </mxCell>
        <mxCell id="hCV3SswvlFDgwHoPoeKC-67" value="Ver detalhes" style="rounded=1;fillColor=#F1F2F4;align=center;strokeColor=default;html=1;whiteSpace=wrap;fontColor=#596780;fontSize=12;sketch=0;" vertex="1" parent="1">
          <mxGeometry x="898.1699999999998" y="1720.2" width="73.18" height="17.41" as="geometry" />
        </mxCell>
        <mxCell id="hCV3SswvlFDgwHoPoeKC-68" value="" style="rounded=1;whiteSpace=wrap;html=1;" vertex="1" parent="1">
          <mxGeometry x="840.87" y="1945.21" width="169" height="261" as="geometry" />
        </mxCell>
        <mxCell id="hCV3SswvlFDgwHoPoeKC-69" value="" style="sketch=0;outlineConnect=0;fontColor=#232F3E;gradientColor=none;fillColor=#ED7100;strokeColor=none;dashed=0;verticalLabelPosition=bottom;verticalAlign=top;align=center;html=1;fontSize=12;fontStyle=0;aspect=fixed;pointerEvents=1;shape=mxgraph.aws4.container_registry_image;" vertex="1" parent="1">
          <mxGeometry x="849.87" y="1957.21" width="149" height="149" as="geometry" />
        </mxCell>
        <mxCell id="hCV3SswvlFDgwHoPoeKC-70" value="&lt;font style=&quot;font-size: 20px;&quot;&gt;Titulo do cartão&lt;/font&gt;" style="text;strokeColor=none;fillColor=none;html=1;fontSize=24;fontStyle=1;verticalAlign=middle;align=center;" vertex="1" parent="1">
          <mxGeometry x="846.62" y="2117.21" width="164.5" height="20" as="geometry" />
        </mxCell>
        <mxCell id="hCV3SswvlFDgwHoPoeKC-71" value="Texto do cartão" style="text;html=1;strokeColor=none;fillColor=none;align=center;verticalAlign=middle;whiteSpace=wrap;rounded=0;" vertex="1" parent="1">
          <mxGeometry x="880.37" y="2137.21" width="90" height="30" as="geometry" />
        </mxCell>
        <mxCell id="hCV3SswvlFDgwHoPoeKC-72" value="Texto do cartão" style="text;html=1;strokeColor=none;fillColor=none;align=center;verticalAlign=middle;whiteSpace=wrap;rounded=0;" vertex="1" parent="1">
          <mxGeometry x="879.37" y="2156.21" width="90" height="30" as="geometry" />
        </mxCell>
        <mxCell id="hCV3SswvlFDgwHoPoeKC-73" value="Ver detalhes" style="rounded=1;fillColor=#F1F2F4;align=center;strokeColor=default;html=1;whiteSpace=wrap;fontColor=#596780;fontSize=12;sketch=0;" vertex="1" parent="1">
          <mxGeometry x="888.7799999999999" y="2185.21" width="73.18" height="17.41" as="geometry" />
        </mxCell>
        <mxCell id="hCV3SswvlFDgwHoPoeKC-74" value="&lt;font style=&quot;font-size: 62px;&quot;&gt;Title&lt;/font&gt;" style="text;html=1;align=center;verticalAlign=middle;whiteSpace=wrap;rounded=0;" vertex="1" parent="1">
          <mxGeometry x="887.74" y="1899" width="60" height="30" as="geometry" />
        </mxCell>
        <mxCell id="hCV3SswvlFDgwHoPoeKC-75" value="" style="rounded=1;whiteSpace=wrap;html=1;" vertex="1" parent="1">
          <mxGeometry x="838.12" y="2225.5" width="169" height="261" as="geometry" />
        </mxCell>
        <mxCell id="hCV3SswvlFDgwHoPoeKC-76" value="" style="sketch=0;outlineConnect=0;fontColor=#232F3E;gradientColor=none;fillColor=#ED7100;strokeColor=none;dashed=0;verticalLabelPosition=bottom;verticalAlign=top;align=center;html=1;fontSize=12;fontStyle=0;aspect=fixed;pointerEvents=1;shape=mxgraph.aws4.container_registry_image;" vertex="1" parent="1">
          <mxGeometry x="847.12" y="2237.5" width="149" height="149" as="geometry" />
        </mxCell>
        <mxCell id="hCV3SswvlFDgwHoPoeKC-77" value="&lt;font style=&quot;font-size: 20px;&quot;&gt;Titulo do cartão&lt;/font&gt;" style="text;strokeColor=none;fillColor=none;html=1;fontSize=24;fontStyle=1;verticalAlign=middle;align=center;" vertex="1" parent="1">
          <mxGeometry x="843.87" y="2397.5" width="164.5" height="20" as="geometry" />
        </mxCell>
        <mxCell id="hCV3SswvlFDgwHoPoeKC-78" value="Texto do cartão" style="text;html=1;strokeColor=none;fillColor=none;align=center;verticalAlign=middle;whiteSpace=wrap;rounded=0;" vertex="1" parent="1">
          <mxGeometry x="877.62" y="2417.5" width="90" height="30" as="geometry" />
        </mxCell>
        <mxCell id="hCV3SswvlFDgwHoPoeKC-79" value="Texto do cartão" style="text;html=1;strokeColor=none;fillColor=none;align=center;verticalAlign=middle;whiteSpace=wrap;rounded=0;" vertex="1" parent="1">
          <mxGeometry x="876.62" y="2436.5" width="90" height="30" as="geometry" />
        </mxCell>
        <mxCell id="hCV3SswvlFDgwHoPoeKC-80" value="Ver detalhes" style="rounded=1;fillColor=#F1F2F4;align=center;strokeColor=default;html=1;whiteSpace=wrap;fontColor=#596780;fontSize=12;sketch=0;" vertex="1" parent="1">
          <mxGeometry x="886.0299999999999" y="2465.5" width="73.18" height="17.41" as="geometry" />
        </mxCell>
        <mxCell id="hCV3SswvlFDgwHoPoeKC-81" value="" style="rounded=1;whiteSpace=wrap;html=1;" vertex="1" parent="1">
          <mxGeometry x="845.13" y="2501.2" width="169" height="261" as="geometry" />
        </mxCell>
        <mxCell id="hCV3SswvlFDgwHoPoeKC-82" value="" style="sketch=0;outlineConnect=0;fontColor=#232F3E;gradientColor=none;fillColor=#ED7100;strokeColor=none;dashed=0;verticalLabelPosition=bottom;verticalAlign=top;align=center;html=1;fontSize=12;fontStyle=0;aspect=fixed;pointerEvents=1;shape=mxgraph.aws4.container_registry_image;" vertex="1" parent="1">
          <mxGeometry x="854.13" y="2513.2" width="149" height="149" as="geometry" />
        </mxCell>
        <mxCell id="hCV3SswvlFDgwHoPoeKC-83" value="&lt;font style=&quot;font-size: 20px;&quot;&gt;Titulo do cartão&lt;/font&gt;" style="text;strokeColor=none;fillColor=none;html=1;fontSize=24;fontStyle=1;verticalAlign=middle;align=center;" vertex="1" parent="1">
          <mxGeometry x="850.88" y="2673.2" width="164.5" height="20" as="geometry" />
        </mxCell>
        <mxCell id="hCV3SswvlFDgwHoPoeKC-84" value="Texto do cartão" style="text;html=1;strokeColor=none;fillColor=none;align=center;verticalAlign=middle;whiteSpace=wrap;rounded=0;" vertex="1" parent="1">
          <mxGeometry x="884.63" y="2693.2" width="90" height="30" as="geometry" />
        </mxCell>
        <mxCell id="hCV3SswvlFDgwHoPoeKC-85" value="Texto do cartão" style="text;html=1;strokeColor=none;fillColor=none;align=center;verticalAlign=middle;whiteSpace=wrap;rounded=0;" vertex="1" parent="1">
          <mxGeometry x="883.63" y="2712.2" width="90" height="30" as="geometry" />
        </mxCell>
        <mxCell id="hCV3SswvlFDgwHoPoeKC-86" value="Ver detalhes" style="rounded=1;fillColor=#F1F2F4;align=center;strokeColor=default;html=1;whiteSpace=wrap;fontColor=#596780;fontSize=12;sketch=0;" vertex="1" parent="1">
          <mxGeometry x="893.0399999999998" y="2741.2" width="73.18" height="17.41" as="geometry" />
        </mxCell>
        <mxCell id="hCV3SswvlFDgwHoPoeKC-87" value="" style="rounded=1;whiteSpace=wrap;html=1;" vertex="1" parent="1">
          <mxGeometry x="845.37" y="2926.21" width="169" height="261" as="geometry" />
        </mxCell>
        <mxCell id="hCV3SswvlFDgwHoPoeKC-88" value="" style="sketch=0;outlineConnect=0;fontColor=#232F3E;gradientColor=none;fillColor=#ED7100;strokeColor=none;dashed=0;verticalLabelPosition=bottom;verticalAlign=top;align=center;html=1;fontSize=12;fontStyle=0;aspect=fixed;pointerEvents=1;shape=mxgraph.aws4.container_registry_image;" vertex="1" parent="1">
          <mxGeometry x="854.37" y="2938.21" width="149" height="149" as="geometry" />
        </mxCell>
        <mxCell id="hCV3SswvlFDgwHoPoeKC-89" value="&lt;font style=&quot;font-size: 20px;&quot;&gt;Titulo do cartão&lt;/font&gt;" style="text;strokeColor=none;fillColor=none;html=1;fontSize=24;fontStyle=1;verticalAlign=middle;align=center;" vertex="1" parent="1">
          <mxGeometry x="851.12" y="3098.21" width="164.5" height="20" as="geometry" />
        </mxCell>
        <mxCell id="hCV3SswvlFDgwHoPoeKC-90" value="Texto do cartão" style="text;html=1;strokeColor=none;fillColor=none;align=center;verticalAlign=middle;whiteSpace=wrap;rounded=0;" vertex="1" parent="1">
          <mxGeometry x="884.87" y="3118.21" width="90" height="30" as="geometry" />
        </mxCell>
        <mxCell id="hCV3SswvlFDgwHoPoeKC-91" value="Texto do cartão" style="text;html=1;strokeColor=none;fillColor=none;align=center;verticalAlign=middle;whiteSpace=wrap;rounded=0;" vertex="1" parent="1">
          <mxGeometry x="883.87" y="3137.21" width="90" height="30" as="geometry" />
        </mxCell>
        <mxCell id="hCV3SswvlFDgwHoPoeKC-92" value="Ver detalhes" style="rounded=1;fillColor=#F1F2F4;align=center;strokeColor=default;html=1;whiteSpace=wrap;fontColor=#596780;fontSize=12;sketch=0;" vertex="1" parent="1">
          <mxGeometry x="893.2799999999999" y="3166.21" width="73.18" height="17.41" as="geometry" />
        </mxCell>
        <mxCell id="hCV3SswvlFDgwHoPoeKC-93" value="&lt;font style=&quot;font-size: 62px;&quot;&gt;Title&lt;/font&gt;" style="text;html=1;align=center;verticalAlign=middle;whiteSpace=wrap;rounded=0;" vertex="1" parent="1">
          <mxGeometry x="892.24" y="2880" width="60" height="30" as="geometry" />
        </mxCell>
        <mxCell id="hCV3SswvlFDgwHoPoeKC-94" value="" style="rounded=1;whiteSpace=wrap;html=1;" vertex="1" parent="1">
          <mxGeometry x="842.62" y="3206.5" width="169" height="261" as="geometry" />
        </mxCell>
        <mxCell id="hCV3SswvlFDgwHoPoeKC-95" value="" style="sketch=0;outlineConnect=0;fontColor=#232F3E;gradientColor=none;fillColor=#ED7100;strokeColor=none;dashed=0;verticalLabelPosition=bottom;verticalAlign=top;align=center;html=1;fontSize=12;fontStyle=0;aspect=fixed;pointerEvents=1;shape=mxgraph.aws4.container_registry_image;" vertex="1" parent="1">
          <mxGeometry x="851.62" y="3218.5" width="149" height="149" as="geometry" />
        </mxCell>
        <mxCell id="hCV3SswvlFDgwHoPoeKC-96" value="&lt;font style=&quot;font-size: 20px;&quot;&gt;Titulo do cartão&lt;/font&gt;" style="text;strokeColor=none;fillColor=none;html=1;fontSize=24;fontStyle=1;verticalAlign=middle;align=center;" vertex="1" parent="1">
          <mxGeometry x="848.37" y="3378.5" width="164.5" height="20" as="geometry" />
        </mxCell>
        <mxCell id="hCV3SswvlFDgwHoPoeKC-97" value="Texto do cartão" style="text;html=1;strokeColor=none;fillColor=none;align=center;verticalAlign=middle;whiteSpace=wrap;rounded=0;" vertex="1" parent="1">
          <mxGeometry x="882.12" y="3398.5" width="90" height="30" as="geometry" />
        </mxCell>
        <mxCell id="hCV3SswvlFDgwHoPoeKC-98" value="Texto do cartão" style="text;html=1;strokeColor=none;fillColor=none;align=center;verticalAlign=middle;whiteSpace=wrap;rounded=0;" vertex="1" parent="1">
          <mxGeometry x="881.12" y="3417.5" width="90" height="30" as="geometry" />
        </mxCell>
        <mxCell id="hCV3SswvlFDgwHoPoeKC-99" value="Ver detalhes" style="rounded=1;fillColor=#F1F2F4;align=center;strokeColor=default;html=1;whiteSpace=wrap;fontColor=#596780;fontSize=12;sketch=0;" vertex="1" parent="1">
          <mxGeometry x="890.5299999999999" y="3446.5" width="73.18" height="17.41" as="geometry" />
        </mxCell>
        <mxCell id="hCV3SswvlFDgwHoPoeKC-100" value="" style="rounded=1;whiteSpace=wrap;html=1;" vertex="1" parent="1">
          <mxGeometry x="849.63" y="3482.2" width="169" height="261" as="geometry" />
        </mxCell>
        <mxCell id="hCV3SswvlFDgwHoPoeKC-101" value="" style="sketch=0;outlineConnect=0;fontColor=#232F3E;gradientColor=none;fillColor=#ED7100;strokeColor=none;dashed=0;verticalLabelPosition=bottom;verticalAlign=top;align=center;html=1;fontSize=12;fontStyle=0;aspect=fixed;pointerEvents=1;shape=mxgraph.aws4.container_registry_image;" vertex="1" parent="1">
          <mxGeometry x="858.63" y="3494.2" width="149" height="149" as="geometry" />
        </mxCell>
        <mxCell id="hCV3SswvlFDgwHoPoeKC-102" value="&lt;font style=&quot;font-size: 20px;&quot;&gt;Titulo do cartão&lt;/font&gt;" style="text;strokeColor=none;fillColor=none;html=1;fontSize=24;fontStyle=1;verticalAlign=middle;align=center;" vertex="1" parent="1">
          <mxGeometry x="855.38" y="3654.2" width="164.5" height="20" as="geometry" />
        </mxCell>
        <mxCell id="hCV3SswvlFDgwHoPoeKC-103" value="Texto do cartão" style="text;html=1;strokeColor=none;fillColor=none;align=center;verticalAlign=middle;whiteSpace=wrap;rounded=0;" vertex="1" parent="1">
          <mxGeometry x="889.13" y="3674.2" width="90" height="30" as="geometry" />
        </mxCell>
        <mxCell id="hCV3SswvlFDgwHoPoeKC-104" value="Texto do cartão" style="text;html=1;strokeColor=none;fillColor=none;align=center;verticalAlign=middle;whiteSpace=wrap;rounded=0;" vertex="1" parent="1">
          <mxGeometry x="888.13" y="3693.2" width="90" height="30" as="geometry" />
        </mxCell>
        <mxCell id="hCV3SswvlFDgwHoPoeKC-105" value="Ver detalhes" style="rounded=1;fillColor=#F1F2F4;align=center;strokeColor=default;html=1;whiteSpace=wrap;fontColor=#596780;fontSize=12;sketch=0;" vertex="1" parent="1">
          <mxGeometry x="897.5399999999998" y="3722.2" width="73.18" height="17.41" as="geometry" />
        </mxCell>
      </root>
    </mxGraphModel>
  </diagram>
</mxfile>
